PathFileType	4	(X/Y/Z)	 s03c0303.trc
DataRate	CameraRate	NumFrames	NumMarkers	Units	OrigDataRate	OrigDataStartFrame	OrigNumFrames
200	200	4	50	mm	200	1501	2000
Frame#	Time	racr			lacr			c7			jug			rlel			rdr			llel			ldr			s2			lic			ric			lasi			rasi			rpsi			lpsi			rgt			lgt			rth1			rth2			rth3			rth4			rlfc			rmfc			rsh1			rsh2			rsh3			rsh4			rlmal			rcal			rtoe			rmt5			rmt1			lth1			lth2			lth4			lth3			llfc			lmfc			lsh1			lsh2			lsh3			lsh4			llmal			lcal			ltoe			lmt1			lmt5			SBIKE			LBIKE			RBIKE			
		X1	Y1	Z1	X2	Y2	Z2	X3	Y3	Z3	X4	Y4	Z4	X5	Y5	Z5	X6	Y6	Z6	X7	Y7	Z7	X8	Y8	Z8	X9	Y9	Z9	X10	Y10	Z10	X11	Y11	Z11	X12	Y12	Z12	X13	Y13	Z13	X14	Y14	Z14	X15	Y15	Z15	X16	Y16	Z16	X17	Y17	Z17	X18	Y18	Z18	X19	Y19	Z19	X20	Y20	Z20	X21	Y21	Z21	X22	Y22	Z22	X23	Y23	Z23	X24	Y24	Z24	X25	Y25	Z25	X26	Y26	Z26	X27	Y27	Z27	X28	Y28	Z28	X29	Y29	Z29	X30	Y30	Z30	X31	Y31	Z31	X32	Y32	Z32	X33	Y33	Z33	X34	Y34	Z34	X35	Y35	Z35	X36	Y36	Z36	X37	Y37	Z37	X38	Y38	Z38	X39	Y39	Z39	X40	Y40	Z40	X41	Y41	Z41	X42	Y42	Z42	X43	Y43	Z43	X44	Y44	Z44	X45	Y45	Z45	X46	Y46	Z46	X47	Y47	Z47	X48	Y48	Z48	X49	Y49	Z49	X50	Y50	Z50	
1501	7.5050	802.729202	1388.067347	-82.737155	785.464869	1432.777207	-392.531190	755.688580	1496.854809	-222.219593	723.127718	1318.620466	-234.410970	662.760750	1175.523861	71.007646	754.241613	933.898412	-28.865422	685.198612	1194.210623	-520.182756	754.643344	928.315132	-411.797888	189.187833	1297.434083	-203.731282	353.098860	1330.852435	-391.274217	372.615892	1275.766311	-30.643388	371.983731	1252.174510	-357.531340	388.841884	1208.888329	-86.904505	231.315259	1334.552479	-153.800111	226.071270	1348.774531	-232.346759	283.510134	1167.055087	-33.214469	305.410328	1240.296965	-422.116723	305.285796	1015.008960	-23.381581	345.453758	935.745962	-27.282951	344.546451	850.925489	-40.260341	380.664362	944.729060	-34.144053	357.515580	729.233555	-76.884844	360.561981	713.434789	-191.903263	303.707305	573.530496	-45.211506	304.292842	484.359711	-54.956356	260.143243	408.002301	-55.965316	334.762704	478.271843	-78.776159	215.607597	286.993893	-75.423505	148.417053	281.688554	-106.889146	412.958880	114.560351	-112.815184	303.329832	162.909435	-41.027622	335.545754	168.427202	-152.328328	403.123481	1134.021416	-465.326191	475.096699	1086.997933	-476.754331	501.560547	1106.760001	-459.962657	513.536190	1007.583322	-491.014681	596.319108	899.252651	-488.538226	602.063219	874.304484	-360.169998	449.176726	804.013408	-492.848588	395.987949	742.406285	-466.465474	311.559819	712.622977	-451.476072	417.265175	717.986628	-444.511683	207.223239	650.049063	-422.347264	132.830895	663.052794	-374.228335	333.715761	430.762550	-349.714846	265.260860	498.387915	-313.907541	240.887528	497.871408	-430.449583	-116.522311	1020.188028	-234.772313	-7.330651	84.323394	-436.949293	-13.683826	80.902684	-36.677634	
1502	7.5100	803.640117	1388.136837	-85.412689	784.410213	1431.753677	-395.466524	755.820964	1496.369301	-224.916382	723.097024	1318.114893	-236.370712	665.517384	1175.709544	69.365017	755.231964	933.097411	-29.166182	682.670732	1193.373374	-522.475834	754.346957	928.789706	-412.435768	190.022735	1296.962022	-200.242707	351.107087	1331.529681	-390.349267	375.597434	1274.807793	-30.561293	371.149669	1252.818851	-356.874039	390.886595	1208.108712	-87.432007	232.463880	1333.794271	-151.170856	226.240070	1348.027699	-229.989392	285.036318	1165.812212	-32.250448	304.613341	1242.079643	-420.759838	304.327070	1014.515603	-22.295774	343.170107	934.440519	-26.333638	340.336038	849.839251	-39.091840	378.292108	942.933628	-33.579330	351.627319	727.782762	-76.808839	355.726693	711.413902	-191.299365	296.525707	572.782736	-44.460776	297.004378	483.700296	-53.969085	252.819695	407.265491	-54.910750	327.705512	477.559480	-77.469198	208.635590	287.014976	-73.408536	141.662055	282.656110	-105.415705	402.365104	110.023750	-113.567086	294.280739	160.274432	-40.919261	325.168543	165.336064	-153.124384	402.142715	1136.106858	-464.644618	474.571571	1089.806514	-476.601300	500.957061	1109.804337	-459.880145	513.600384	1011.173190	-492.066938	600.185684	904.174842	-487.829621	606.831475	880.000590	-359.027805	454.705865	807.006179	-492.260208	402.200269	744.923988	-465.697880	318.026018	714.169258	-451.217316	423.548521	720.992552	-443.509034	214.153977	650.964576	-422.228422	139.110250	662.944269	-374.302694	344.713052	434.825305	-349.744495	275.025234	501.418840	-314.018930	251.161997	499.923638	-430.784572	-116.520300	1020.142749	-234.881991	-7.319964	84.304343	-436.970219	-13.681902	80.896172	-36.686059	
1503	7.5150	804.601531	1388.166729	-88.060735	783.307275	1430.752553	-398.458942	755.848993	1495.997429	-227.614316	723.063156	1317.703182	-238.259732	668.502683	1176.046615	68.311575	756.444479	932.733009	-29.105645	680.043011	1192.530697	-524.708712	753.957417	929.294893	-412.786025	190.997113	1296.725763	-196.847018	349.140015	1332.305255	-389.573358	378.365068	1274.096855	-30.523921	370.244209	1253.661275	-356.186537	392.706083	1207.453530	-87.800559	230.246356	1335.211943	-143.559198	226.279399	1347.416854	-227.881884	286.526273	1164.719087	-31.389988	303.693378	1243.794284	-419.379457	303.508613	1014.272119	-21.210996	341.356798	933.685139	-25.278659	336.600718	849.008329	-37.348777	376.266358	941.618845	-33.072178	346.248639	726.791890	-76.526284	350.222771	710.334750	-190.984187	289.852520	572.448873	-43.613008	290.074322	483.403749	-52.998278	245.730451	407.140732	-53.749185	320.798520	477.046710	-76.320417	201.783548	287.042377	-71.949148	134.748254	284.100221	-103.945665	391.675380	106.175919	-114.305017	285.043136	158.230534	-40.750810	314.975310	162.894945	-153.624606	400.839868	1137.819713	-463.878176	473.676393	1092.343537	-476.702232	500.085627	1112.798309	-460.448732	513.416957	1014.012301	-491.743663	603.975269	909.113198	-487.120690	611.432593	885.871628	-357.803276	460.164256	809.707421	-491.459708	408.326413	746.980265	-464.899319	324.474102	715.160919	-451.115528	429.839741	723.557496	-442.405703	221.092519	651.103605	-422.173656	145.513567	662.210336	-374.112024	355.908689	438.686049	-349.945406	285.030729	504.003190	-314.198408	260.958116	501.719200	-430.921177	-116.574947	1020.091085	-235.001122	-7.334792	84.268449	-436.970077	-13.672603	80.888410	-36.680932	
1504	7.5200	805.555938	1388.917398	-87.222746	782.343069	1429.772465	-401.082238	756.542349	1496.064045	-230.319430	722.596049	1317.918933	-239.776500	670.894339	1176.568244	67.381638	757.281069	932.524409	-29.534616	677.418375	1191.574498	-526.655705	753.590863	929.694439	-412.905805	191.189066	1296.666443	-194.743810	347.236079	1333.262316	-388.934718	380.825292	1273.527676	-30.402921	369.238927	1254.693696	-355.552094	394.370956	1207.155705	-88.073532	232.909582	1333.951405	-143.980321	226.723527	1347.603659	-226.019755	288.012769	1164.116883	-30.461084	302.056704	1245.150222	-416.948563	302.855538	1014.401023	-20.191937	339.676202	933.320509	-24.201900	333.480518	848.611942	-35.925696	374.491546	940.686973	-32.402379	341.396538	726.282991	-76.391195	345.705283	709.471201	-190.607637	283.672252	572.534562	-42.796346	283.529299	483.433171	-51.985675	238.903462	407.323856	-52.555132	314.390544	476.926057	-75.083679	194.775871	287.512220	-70.615132	127.704039	286.091582	-102.706112	380.822736	103.076726	-114.639718	275.504376	156.790431	-40.529225	304.926944	161.445231	-153.689369	399.335464	1139.124613	-462.902439	472.445371	1094.436704	-476.280463	498.894152	1115.510871	-460.748380	513.191896	1016.322438	-490.917697	607.359043	913.816203	-486.097756	615.805251	891.689121	-356.264413	465.424718	811.954732	-490.637684	414.402104	748.718190	-464.133668	330.964507	715.442791	-450.667408	435.979928	725.807882	-441.241152	227.916516	650.684268	-422.146722	151.289056	660.602281	-374.185864	367.403560	442.136968	-349.840093	295.016932	506.145468	-313.555834	270.518601	502.988423	-431.070456	-116.572218	1020.102436	-235.106370	-7.323598	84.228926	-436.976391	-13.686411	80.888955	-36.688433	
